<?xml version="1.0" encoding="UTF-8"?>
<svg id="Layer_2" data-name="Layer 2" xmlns="http://www.w3.org/2000/svg" viewBox="0 0 472.44 385.1">
  <defs>
    <style>
      .cls-1 {
        fill: #fff;
        stroke: #231f20;
        stroke-miterlimit: 10;
        stroke-width: .5px;
      }

      .cls-2 {
        fill: #ccaa50;
      }
    </style>
  </defs>
  <g id="Layer_1-2" data-name="Layer 1">
    <path class="cls-1" d="M195.1,189.49l.84-.9,1.85,8.61h12.72v-37.3c-.75-.19-1.45-.37-2.24-.43-6.68-.53-17.05-.38-23.81.02-.8.05-4.46.3-4.86.3s-1.1.04-1.1.32v12.09h12.92c2.2,3.78-2.77,9.1-6.08,10.73-5.78,2.85-15.29,1.97-19.74-2.96-6.75-7.48-6.82-28.39-.44-36.05,5.77-6.92,19.01-6.84,24.34.69,1.21,1.71,1.43,3.6,2.8,4.99,4.79-.14,9.97.41,14.72.08.48-.03,2.17-.16,2.27-.69-3.79-28.29-46.56-32.54-60.42-10.27-15.72,25.25-.57,62.55,27.16,60.22,7.29-.61,14.03-4.13,19.05-9.45Z"/>
    <path class="cls-1" d="M360.72,178.89c.4-1.22,1.95-6.81,1.72-7.61-.18-.63-4.22-1.11-5.09-1.11-1.17,0-2.18.46-3.26.46-2.99.01-5.99-.02-8.98-.04-2.05,9.68-7.28,14.7-17.6,13.49-14.71-1.73-15.29-25.69-11.2-36.08,4.59-11.65,21.8-13.24,26.86-1.68.87,2,.93,4.23,2.31,5.88h15.96c.14,0,.65-.45.99-.46-1.36-13.59-9.6-24.01-23.27-26.78-32.75-6.63-50.43,24.77-39.62,53.13,10.07,26.42,52.16,28.17,61.17.8Z"/>
    <path class="cls-1" d="M244.22,182.2h24.93s5.27,15,5.27,15h16.89l.57-.98-25.6-71.13c-1.44-2.4-6.14-.97-8.32-.94-2.6.04-7.02-.45-9.3,0-.58.11-.99.3-1.25.86-7.68,20.89-15.47,41.76-23.05,62.68-.46,1.26-3.38,9.08-2.95,9.51h17.53l5.27-15ZM253.6,151.8c.63-1.93,1.5-5.43,2.38-7.03.25-.45.47-1.03,1.1-.94l7.58,25.38h-15.96c1.2-5.87,3.03-11.7,4.9-17.4Z"/>
    <path class="cls-1" d="M109.52,127v69.58l.61.61h16.77l.61-.61v-70.2c-.75-.19-1.44-.37-2.23-.43-1.91-.15-14-.21-14.95.23-.19.09-.82.74-.82.81Z"/>
    <g>
      <path class="cls-2" d="M115.67,227.7c.58,2.65,2.57,5.42,4.08,7.87,47.26,76.29,153.73,89.34,217.98,26.4,2.26-2.21,7.84-7.56,9.22-10.02.37-.66.51-1.08.39-1.86l-3.49-.4c-1.01-3.99-.12-7.08-2.16-10.94-2-3.79-4.92-5.84-3.76-12.05h-84.96c-1.64.82-2.87,2.04-4.5,2.12-2.25.11-5.1-1.46-7.16.69-4.43,4.6.7,9.07-.71,13.1-2.48,3.63-5.25,7.04-7.8,10.62-.93,1.31-1.95,3.66-2.76,4.6-1.02,1.18-7.33,4.07-9,4.51-1.56.41-4.59.09-5.02,1.54-.9,3.01,3.15,2.04,3.24,3.6.17,2.61-3.82,3.4-3.16,5.54.87,2.77,4.79,2.1,5.37,3.26.71,2.65-1.77,5.08-.85,7.8.47,1.39,8.42,6.09,3.93,7.57-1.29.42-5.6.34-6.86-.13-1.21-.46-7.07-5.46-8.1-6.64-1.6-1.82-6.63-10.76-6.72-12.93-.14-3.42,1.62-7.86-.1-10.95-.81-1.46-3.19-3.54-3.53-5.07-.56-2.55,2.38-9.82.74-11.39-.44-.42-2.06-.54-1.97-1.62v-15.22h-82.35Z"/>
      <path class="cls-2" d="M159.08,49.3c1.78.35,3.69-.1,5.5.21,1.33.23,2.71,1.2,4.04,1.65,1.48.5,3.57.25,4.6,1.51.54.66.45,1.83,1.63,2.03h8.1c.53-4.8-5.04-2.78-8.14-3.66-.16-.86.81-1.34.73-2.17-.3-3.29-6.44-1.05-6.42-2.51,4.05-3.55,6.27-5.64,12.01-5.11,4.17.39,4.11,4.82,6.92,5.28.99.16,4.31.2,5.26.02,1.59-.3,2.27-2.86,4.08-2.88,3.67-.04-1.7,4.58-2.75,5.02-1.35.57-5.97.17-6.64,1.09l.23,4.21c.12.45.71.52,1.1.59,1.25.23,5.51-.06,6.82-.3,1.32-.24,1.92-2.06,2.94-2.35,1.64-.48,4.45.71,5.23-1.69,1.02-3.09-1.91-2.55-2.24-3.54-.61-2.56,2.74-3.03,4.65-3.03.66,0,5.27.48,5.5.63.44.28.52.56.2,1.04-.94,1.42-3.98,1.73-3.31,4.89.6,2.85,3.39,2.34,5.68,2.87,1.67-2.8-1.54-5.08,1.92-7.53,3.04-2.15,11.16-2.83,14.61-1.65,1.4.48,8.93,3.79,9.76,4.48.31.26.64.45.75.88l.28,3.79,3.03,1.88c-.35,4.5-4.71,2.7-6.8,3.71-1.3.63-1.19,3.01-2.12,3.57-1.64,1-9.2-1.93-11.4-2.25-1.08-1.45,8.41-4.43,7.98-6.12-.3-1.18-2.46-2.67-3.69-2.84-1.93-.27-7.69.34-9.32,1.3-1.27.75-1.99,2.35-3.63,2.88-3.14,1.02-4.02-.87-3.31,4-1.91-.05-2.35,1.85-3.08,2.22-2.74,1.4-2.46-1.91-3.43-2.69-1.3-1.05-6.08,1.15-7.57,1.86-1.41.68-10.11,5.75-10.61,6.51-.66,1.01.53,4.54,1.47,5.51,2.44,2.51,6.25,2.39,9.2,3.42,1.06,1.33-.44,7.27,2.26,7.48,3.1.23,3.41-5.14,5.21-6.43,1.47-1.05,5.89-1.54,6.75-2.61,1.8-2.22-.16-6.95.9-9.28.51-1.12,2.51-2.68,3.75-2.79.93-.08,8.03,1.58,8.58,2.04,1.38,1.14-.05,3.23.17,4.69.65,4.28,8.54-2.41,9.75-1.38l.63,7.31c1.45,1.59,4.77,2.32,5.08,4.71.57,4.48-5.57,4.13-5.25,6.01,1.18,2.21,6.8,2.29,6.49,5.33-.23,2.24-2.68,1.06-3.98.73-.91-.23-4.6-1.37-5.02-1.9-1.63-2.05,2.65-3.17,1.47-5.53-1.32-2.65-3.38.73-4.26,1.04-.47.17-3.04.62-3.5.61-1.71-.05-2.29-2.21-3.82-2.69-2.34-.73-6.26.35-4.71,3.49.65,1.31,4.15.87,3.87,2.23-.47,2.21-3.95-.38-5.69.42-1.65.76-4.75,5.42-6.31,6.71-2.38,1.98-6.25,3.04-8.77,5.47-1.05,1.02-2.02,2.75-3.03,3.89-2.28,2.57-5.43,4.04-4.69,8.13h116.09c.65,0,4.4-2.09,6.21-2.34,3.74-.5,7.92-.16,11.7-.96l1.23.43,1.21,2.86h38.66l.61-1.01c-2.4-3.39-6.47-.49-9.32-2.9-2.7-2.29-2.21-4.33-2.91-7.26-.45-1.89-2.91-.79-3.82.21-1.15,1.26-1.53,7.19-2.87,6.89-.4-.09-3.33-3.38-3.69-4.05-1.31-2.41-.51-4.73-1.63-6.51-.37-.59-5.18-4.67-5.9-5.09-1.81-1.04-3.81-.6-5.82-.57l-.5.32c-.65,5.96,5.51,6.64,9,9.79-1.09,2.1.18,5.09-2.43,6.14-2.08.84-5.12.71-5.12-2.06,2.07.02,4.94.57,4.4-2.37-2.62-2.21-6.6-3.99-9.07-6.19-1.73-1.54-1.46-4.28-3.69-2.86-1.07.68-1.75,2.29-3.44,2.7-1.69.41-3.09-1.56-4.68.17l-8.23,11.3c-2.99.69-10.79,1.15-13.13-.94-1.61-1.44-2.16-8.98-.61-10.77,1.05-1.2,6.79-1.77,8.5-1.59,2.94.3,6.32,2.69,5.88-2.62-2.16-1.48-2.3-1.21-1.93-4.09.62-4.81,3.86-2.64,7.02-4.37,2.38-1.31,4.75-7.27,7.79-7.27h8.61l-.87-6.05-5.6,1.13c-.6-1.29-1.14-4-2.5-4.63-1.41-.65-2.61.2-3.08-2.24-.97-4.96,10.35-5.47,9.91-9.51-.14-1.24-3.49-3.8-4.59-4.72-44.97-37.46-113.71-40.07-162.46-8.32-.91.59-5.46,3.52-5.73,4.04-.33.66.7.82,1.12.9Z"/>
      <path class="cls-2" d="M363.71,353.44c-36.1,7.67-54.22-15.23-86.22-19.8-9.59-1.37-24.53-1.7-33.87.81-2.29.61-4.11,2.04-6.59,2.04-2.39,0-5.11-1.48-7.48-1.97-11.8-2.44-23.15-2.36-34.98,0-33.27,6.62-55.05,31.37-92.21,18.31l-10.03-4.3c7.84,9.54,20.09,16.35,31.93,19.64,23.7,6.59,43.35-1.14,62.75-14.2,11.95-8.04,23.63-20.01,39.57-14.66.13.71-.34,1.06-.85,1.4-2.38,1.57-5.85,2.81-8.43,4.26-15.37,8.66-30.5,19.59-42.32,32.62l8.9,7.51c.92.08,6.93-7.69,8.11-8.95,9.82-10.53,22.74-21.87,35.29-28.98,4.18-2.37,8.54-5.38,13.38-3.3,10.26,4.41,23.55,15.38,31.78,23.07,6.05,5.65,11.51,12.16,17.82,17.42l.99-.22c1.39-1.71,7.42-5.34,7.42-7.37,0-1.25-4.39-5.25-5.58-6.33-13.01-11.86-29.11-21.82-44.8-29.69l-.42-1.42c9.82-2.06,17.86-.73,26.17,4.73,18.39,12.09,31.36,23.72,55.08,25.14,17.12,1.03,39.5-7.29,50.55-20.67.38-.46.99-.66.82-1.43-5.47,2.52-10.82,5.08-16.78,6.35Z"/>
      <path class="cls-2" d="M384.62,299.44c-2.85,2.19-5.99,5.9-8.66,7.71-.82.56-1.8,1.12-2.84,1.05-.18-.77.44-.97.82-1.43,5.95-7.22,10.72-11,15.3-19.9,9.08-17.65,6.9-34.06,12.24-52.02.78-2.63,2.69-5.42,2.55-8.1-6.35,8.55-13.19,17.04-18.02,26.6-8.41,16.66-11.16,35.65-20.59,51.86-3.2,5.5-7.01,10.4-11.53,14.87,11.64-3.47,23.84-4.74,35.61-7.56,22.58-5.4,42.3-19.34,55.34-38.39,5.66-8.27,10.32-17.24,11.78-27.31l-4.74,7.74c-16.09,22.76-45.93,28.46-67.26,44.89Z"/>
      <path class="cls-2" d="M108.8,318.96c3.38.68,6.7,1.92,10.14,2.34.56-.51-4.57-5.09-5.12-5.72-14.02-16.34-16.03-36.39-24.82-55-5.15-10.92-12.53-20.45-19.6-30.14l-.82.21c8.31,21.99,4.64,45.44,19.08,65.23,3.58,4.91,8,8.12,11.62,12.53.38.46.99.66.82,1.43-1.34,1.22-14.72-10.02-16.65-11.38-22.3-15.7-54.39-21.09-66.85-47.96-.71-.1-.42.94-.36,1.38,2.28,18.15,23.26,40.99,38.06,50.76,18.04,11.92,34.2,12.21,54.5,16.32Z"/>
      <path class="cls-2" d="M71.33,282.76c.41.26,2.36,1.52,2.58,1.3-3.51-7.51-6.71-14.26-8.4-22.5-5.33-25.99-2.27-54.48-13.08-79.42-.98-.89-.52-.19-.45.45,1.85,17.03-6.44,32.84-5.5,50.12.68,12.51,4.25,17.63,9.05,28.19.29.65.5,1.13.37,1.87-5.09-4.3-8.01-10.73-11.94-16.1-2.01-2.75-4.46-5.88-6.68-8.47-13.27-15.47-32.37-28.09-36.43-49.52-.68.47-.59,1.12-.64,1.82-3.52,47.44,36.41,70.64,71.11,92.25Z"/>
      <path class="cls-2" d="M472.18,185.01c-1.13-.2-.69.23-.92.9-1.05,2.99-1.59,6.1-2.82,9.07-6.89,16.66-22.45,27.41-33.49,41-6.2,7.62-11.37,16.14-17.19,24.04l-1.24.71c-.32-.35,3.68-7.23,4.16-8.32,12.71-28.66-2.62-46.12-.12-72.57.04-.46.37-1.47-.36-1.38-11.43,25.73-7.34,54.69-13.23,81.53-1.7,7.75-4.61,14.93-8.06,22.02l39.25-26.44c13.94-11.25,26.09-25.76,31.27-43.23,2.65-8.96,3.51-18.02,2.75-27.33Z"/>
      <path class="cls-2" d="M348.82,326.68c-7.24.89-16.23,3.69-22.98,4.03-1,.05-2.64.34-3.06-.81,7.23-2.24,13.92-4.27,20.18-8.68,13.68-9.62,16.32-23.45,23.81-37.18,1.02-1.87,2.59-3.73,3.51-5.49.2-.38.75-1.16.18-1.45-6.65,4.85-12.96,10.21-19.04,15.75-13.14,11.99-23.93,26.82-40.65,33.85-5.6,2.35-11.54,3.93-17.47,5.25l.4.62c18.66,2.05,36.35,9.06,55.06,10.84,24.84,2.36,48.75-7.68,64.67-26.6,2.61-3.1,5.51-6.99,7.15-10.65-18.69,19.88-46.94,17.48-71.78,20.52Z"/>
      <path class="cls-2" d="M126.87,344.59c17.07-1.71,32.94-8.48,49.63-10.95.3-.04,4.16.21,3.02-.87-13.21-2.52-25.95-8.03-36.03-16.98-12.12-10.77-22.74-23.2-35.82-32.95-1.04-.77-4.42-3.39-5.32-3.69-.21-.07-.67-.11-.6.2,9.68,13.75,13.59,31.94,27.46,42.54,4.53,3.46,9.37,5.61,14.79,7.31,2.04.64,6.14.5,6.87,2.75-9.42-.59-18.61-3.12-28.04-4.09-20.9-2.15-43.09-.35-61.56-12.11-2.58-1.64-4.88-3.75-7.4-5.49-.62.79,5,7.95,5.93,9.01,17.37,19.88,40.92,27.94,67.08,25.32Z"/>
      <path class="cls-2" d="M449.25,174.97c-3.1,9.73-4.39,19.93-7.37,29.68-1.14.26-.89-.57-.81-1.42.32-3.51,1.78-7.23,2.04-11.06,1.62-24.18-10.54-34.34-20.53-53.55-1.91-3.68-3.12-7.45-4.73-11.23-.21-.51-.22-1.21-.93-1.32-.32,11.94,1.96,24.08,4.63,35.69,4.19,18.29,13.17,36.28,12.58,54.99l-.83,9.6c.76.18.79-.26,1.16-.68,1.85-2.15,3.8-5.81,5.64-8.28,7.79-10.46,18.82-21.49,23.9-33.4,7.64-17.92,9.88-39.36,5.6-58.4-.88-3.9-2.14-7.67-3.56-11.38-.73-.09-.4.92-.36,1.38,2.29,24.25-9.64,38.09-16.43,59.39Z"/>
      <path class="cls-2" d="M38.77,229.62l.81-.2c.05-2.67-.71-5.54-.84-8.17-.79-16.7,5.61-30.3,9.72-45.98,4.03-15.35,6.84-31.66,6.66-47.57-.57-.1-.55.69-.71,1.12-1.73,4.68-2.45,8.47-4.94,13.07-10.18,18.79-22.65,33.14-19.25,56.77.39,2.72,1.87,6.2,1.99,8.66.04.81-.07.64-.81.61-3.64-9.96-4.69-20.59-8.01-30.68-5.39-16.39-16.1-31.12-17.37-48.94v-10.43c-7.24,20.11-6.44,41.53-.21,61.8,6.25,20.32,23.15,31.85,32.96,49.93Z"/>
      <path class="cls-2" d="M445.57,82.47c-.84,18.04-3.06,33.07-1.22,51.57.18,1.83.74,3.68.81,5.53-.92.15-1.13-.61-1.36-1.29-1.28-3.79-1.38-8.32-2.94-12.62-7.05-19.36-24.55-26.39-36.21-41.56-.22-.28-2.62-4.81-2.47-2.86.45,5.86,5.67,18.82,8.45,24.3,8.68,17.11,24.68,30.64,31.58,48.65,1.09,2.85,1.75,6.95,2.86,9.41.25.56.04.64.91.52,1.71-18.6,13.15-34.36,14.32-53.01,1.16-18.51-5.16-43.02-18.21-56.69-.32-.33-1.42-1.63-1.85-1.22,5.11,8.81,5.78,19.25,5.32,29.26Z"/>
      <path class="cls-2" d="M26.44,166.18c1.05.16.64-.09.86-.58,1.06-2.36,1.62-5.51,2.63-8.01,8.01-19.92,25.21-35.05,33.14-54.86,2.47-6.16,4.07-12.68,5.12-19.23-1.32,1.07-1.86,2.96-2.86,4.3-11.88,15.96-30.69,23.21-35.82,45.63-.31,1.37-1.15,9.38-2.04,9.41-.8-.58-.66-1.42-.64-2.25.15-7.84,1.75-15.9,1.66-23.73-.18-16.84-6.6-34.64-2.26-51.37.89-3.43,2.63-6.54,3.89-9.82-17.82,20.34-23.68,47.6-15.67,73.59,3.8,12.33,10.53,23.89,11.99,36.93Z"/>
      <path class="cls-2" d="M33.8,110.51c.75.17.8-.23,1.16-.68,2.31-2.96,4.1-6.3,6.63-9.33,13.1-15.7,29.78-21.29,40.84-41.02,2.98-5.32,5.9-12.01,5.61-18.13-1.61,2.01-2.66,4.33-4.31,6.33-10.24,12.4-27.45,18.4-36.76,32.01l-6.61,10.78c.79-5.77,3.57-11.1,5.2-16.69,4.93-16.89,4.8-36.34,18.94-48.79-18.66,6.52-30.36,24.06-31.53,43.57-.54,9.02.89,17.4,1.26,26.2.22,5.28-.35,10.52-.42,15.77Z"/>
      <path class="cls-2" d="M416.82,39.59c3.48,9.62,5.16,20.85,8.08,30.8,1.7,5.79,4.07,11.4,5.52,17.19l-4.74-8.15c-3.91-5.59-8.79-10.31-14.12-14.53-10.3-8.14-22.96-13.66-29.64-25.62.39,6.62,3.48,14.05,6.84,19.77,9.91,16.92,30.63,25.44,42.89,40.61,1.86,2.31,3.29,5.1,4.99,7.29.35.46.41.85,1.16.68-2.77-16.52,1.82-33.02-1.35-49.61-2.47-12.91-12.27-26.38-23.75-32.73-2.39-1.32-5.38-2.81-8.05-3.2,5.56,5.08,9.59,10.32,12.18,17.49Z"/>
      <path class="cls-2" d="M370.25,12.08c4.47,5.36,8.16,12.01,12.71,17.58,7.71,9.44,20.18,22.31,30.15,29.2.68.47,1.26,1.04,2.18.89-4.04-13.27-7.82-26.8-17.18-37.46-10.77-12.27-24.75-16.98-39.71-22.29,3.42,4.39,8.28,7.78,11.86,12.08Z"/>
      <path class="cls-2" d="M58.15,60.15c7.08-5.66,14.79-12.13,20.89-18.81,8.89-9.74,14.84-21.6,23.73-31.53,1.69-1.88,3.95-3.6,5.53-5.52.38-.46.99-.66.82-1.43-16.48,5.66-32.76,12.9-42.49,28.11-6.07,9.49-8.08,20.16-11.13,30.82.28.3,2.26-1.34,2.65-1.65Z"/>
      <path class="cls-2" d="M110.02,114.19v-5.73c-1.6.08-2.48,3.88-2.47,5.11,0,1.22,1.64.41,2.47.62Z"/>
    </g>
  </g>
</svg>